{
	"asset":{
		"generator":"Khronos glTF Blender I/O v5.0.21",
		"version":"2.0"
	},
	"scene":0,
	"scenes":[
		{
			"name":"BossSplitTemporary",
			"nodes":[
				0
			]
		}
	],
	"nodes":[
		{
			"mesh":0,
			"name":"boss_head"
		}
	],
	"materials":[
		{
			"doubleSided":true,
			"name":"BossPartWhite",
			"pbrMetallicRoughness":{
				"metallicFactor":0,
				"roughnessFactor":0.800000011920929
			}
		}
	],
	"meshes":[
		{
			"name":"boss_head",
			"primitives":[
				{
					"attributes":{
						"POSITION":0,
						"NORMAL":1
					},
					"indices":2,
					"material":0
				}
			]
		}
	],
	"accessors":[
		{
			"bufferView":0,
			"componentType":5126,
			"count":602,
			"max":[
				0.26914069056510925,
				2.4814536571502686,
				0.20463453233242035
			],
			"min":[
				-0.21899227797985077,
				2.0026869773864746,
				-0.20463453233242035
			],
			"type":"VEC3"
		},
		{
			"bufferView":1,
			"componentType":5126,
			"count":602,
			"type":"VEC3"
		},
		{
			"bufferView":2,
			"componentType":5123,
			"count":606,
			"type":"SCALAR"
		}
	],
	"bufferViews":[
		{
			"buffer":0,
			"byteLength":7224,
			"byteOffset":0,
			"target":34962
		},
		{
			"buffer":0,
			"byteLength":7224,
			"byteOffset":7224,
			"target":34962
		},
		{
			"buffer":0,
			"byteLength":1212,
			"byteOffset":14448,
			"target":34963
		}
	],
	"buffers":[
		{
			"byteLength":15660,
			"uri":"boss_head.bin"
		}
	]
}
