{
	"asset":{
		"generator":"Khronos glTF Blender I/O v5.0.21",
		"version":"2.0"
	},
	"scene":0,
	"scenes":[
		{
			"name":"Scene",
			"nodes":[
				0,
				1,
				2,
				3,
				4
			]
		}
	],
	"nodes":[
		{
			"mesh":0,
			"name":"\u5e73\u9762",
			"scale":[
				25,
				1,
				25
			]
		},
		{
			"mesh":1,
			"name":"\u7acb\u65b9\u4f53",
			"scale":[
				25,
				3.5,
				1.5
			],
			"translation":[
				0,
				1,
				-21.94997215270996
			]
		},
		{
			"mesh":2,
			"name":"\u7acb\u65b9\u4f53.001",
			"scale":[
				25,
				3.5,
				1.5
			],
			"translation":[
				0,
				-4.2468366622924805,
				20.7720890045166
			]
		},
		{
			"mesh":3,
			"name":"\u7acb\u65b9\u4f53.002",
			"scale":[
				1,
				15,
				31.260334014892578
			],
			"translation":[
				-15.332345962524414,
				11.500962257385254,
				0
			]
		},
		{
			"mesh":4,
			"name":"\u7acb\u65b9\u4f53.003",
			"scale":[
				1,
				15,
				31.260334014892578
			],
			"translation":[
				25.521211624145508,
				11.500962257385254,
				0
			]
		}
	],
	"meshes":[
		{
			"name":"\u5e73\u9762",
			"primitives":[
				{
					"attributes":{
						"POSITION":0,
						"NORMAL":1,
						"TEXCOORD_0":2
					},
					"indices":3
				}
			]
		},
		{
			"name":"\u7acb\u65b9\u4f53",
			"primitives":[
				{
					"attributes":{
						"POSITION":4,
						"NORMAL":5,
						"TEXCOORD_0":6
					},
					"indices":7
				}
			]
		},
		{
			"name":"\u7acb\u65b9\u4f53.001",
			"primitives":[
				{
					"attributes":{
						"POSITION":8,
						"NORMAL":9,
						"TEXCOORD_0":10
					},
					"indices":7
				}
			]
		},
		{
			"name":"\u7acb\u65b9\u4f53.002",
			"primitives":[
				{
					"attributes":{
						"POSITION":11,
						"NORMAL":12,
						"TEXCOORD_0":13
					},
					"indices":14
				}
			]
		},
		{
			"name":"\u7acb\u65b9\u4f53.003",
			"primitives":[
				{
					"attributes":{
						"POSITION":15,
						"NORMAL":16,
						"TEXCOORD_0":17
					},
					"indices":14
				}
			]
		}
	],
	"accessors":[
		{
			"bufferView":0,
			"componentType":5126,
			"count":4,
			"max":[
				1,
				0,
				1
			],
			"min":[
				-1,
				0,
				-1
			],
			"type":"VEC3"
		},
		{
			"bufferView":1,
			"componentType":5126,
			"count":4,
			"type":"VEC3"
		},
		{
			"bufferView":2,
			"componentType":5126,
			"count":4,
			"type":"VEC2"
		},
		{
			"bufferView":3,
			"componentType":5123,
			"count":6,
			"type":"SCALAR"
		},
		{
			"bufferView":4,
			"componentType":5126,
			"count":1888,
			"max":[
				1,
				3.421168804168701,
				1.8130764961242676
			],
			"min":[
				-1,
				-1,
				-1.5117465257644653
			],
			"type":"VEC3"
		},
		{
			"bufferView":5,
			"componentType":5126,
			"count":1888,
			"type":"VEC3"
		},
		{
			"bufferView":6,
			"componentType":5126,
			"count":1888,
			"type":"VEC2"
		},
		{
			"bufferView":7,
			"componentType":5123,
			"count":4836,
			"type":"SCALAR"
		},
		{
			"bufferView":8,
			"componentType":5126,
			"count":1888,
			"max":[
				1,
				3.421168804168701,
				1.8130764961242676
			],
			"min":[
				-1,
				-1,
				-1.5117465257644653
			],
			"type":"VEC3"
		},
		{
			"bufferView":9,
			"componentType":5126,
			"count":1888,
			"type":"VEC3"
		},
		{
			"bufferView":10,
			"componentType":5126,
			"count":1888,
			"type":"VEC2"
		},
		{
			"bufferView":11,
			"componentType":5126,
			"count":24,
			"max":[
				1,
				1,
				1
			],
			"min":[
				-1,
				-1,
				-1
			],
			"type":"VEC3"
		},
		{
			"bufferView":12,
			"componentType":5126,
			"count":24,
			"type":"VEC3"
		},
		{
			"bufferView":13,
			"componentType":5126,
			"count":24,
			"type":"VEC2"
		},
		{
			"bufferView":14,
			"componentType":5123,
			"count":36,
			"type":"SCALAR"
		},
		{
			"bufferView":15,
			"componentType":5126,
			"count":24,
			"max":[
				1,
				1,
				1
			],
			"min":[
				-1,
				-1,
				-1
			],
			"type":"VEC3"
		},
		{
			"bufferView":16,
			"componentType":5126,
			"count":24,
			"type":"VEC3"
		},
		{
			"bufferView":17,
			"componentType":5126,
			"count":24,
			"type":"VEC2"
		}
	],
	"bufferViews":[
		{
			"buffer":0,
			"byteLength":48,
			"byteOffset":0,
			"target":34962
		},
		{
			"buffer":0,
			"byteLength":48,
			"byteOffset":48,
			"target":34962
		},
		{
			"buffer":0,
			"byteLength":32,
			"byteOffset":96,
			"target":34962
		},
		{
			"buffer":0,
			"byteLength":12,
			"byteOffset":128,
			"target":34963
		},
		{
			"buffer":0,
			"byteLength":22656,
			"byteOffset":140,
			"target":34962
		},
		{
			"buffer":0,
			"byteLength":22656,
			"byteOffset":22796,
			"target":34962
		},
		{
			"buffer":0,
			"byteLength":15104,
			"byteOffset":45452,
			"target":34962
		},
		{
			"buffer":0,
			"byteLength":9672,
			"byteOffset":60556,
			"target":34963
		},
		{
			"buffer":0,
			"byteLength":22656,
			"byteOffset":70228,
			"target":34962
		},
		{
			"buffer":0,
			"byteLength":22656,
			"byteOffset":92884,
			"target":34962
		},
		{
			"buffer":0,
			"byteLength":15104,
			"byteOffset":115540,
			"target":34962
		},
		{
			"buffer":0,
			"byteLength":288,
			"byteOffset":130644,
			"target":34962
		},
		{
			"buffer":0,
			"byteLength":288,
			"byteOffset":130932,
			"target":34962
		},
		{
			"buffer":0,
			"byteLength":192,
			"byteOffset":131220,
			"target":34962
		},
		{
			"buffer":0,
			"byteLength":72,
			"byteOffset":131412,
			"target":34963
		},
		{
			"buffer":0,
			"byteLength":288,
			"byteOffset":131484,
			"target":34962
		},
		{
			"buffer":0,
			"byteLength":288,
			"byteOffset":131772,
			"target":34962
		},
		{
			"buffer":0,
			"byteLength":192,
			"byteOffset":132060,
			"target":34962
		}
	],
	"buffers":[
		{
			"byteLength":132252,
			"uri":"groud.bin"
		}
	]
}
