{
	"asset":{
		"generator":"Khronos glTF Blender I/O v5.0.21",
		"version":"2.0"
	},
	"scene":0,
	"scenes":[
		{
			"name":"BossFragmentsTemporary",
			"nodes":[
				0
			]
		}
	],
	"nodes":[
		{
			"mesh":0,
			"name":"boss_head_frag_03"
		}
	],
	"materials":[
		{
			"doubleSided":true,
			"name":"FragmentWhite",
			"pbrMetallicRoughness":{
				"metallicFactor":0,
				"roughnessFactor":0.800000011920929
			}
		}
	],
	"meshes":[
		{
			"name":"boss_head_frag_03",
			"primitives":[
				{
					"attributes":{
						"POSITION":0,
						"NORMAL":1
					},
					"indices":2,
					"material":0
				}
			]
		}
	],
	"accessors":[
		{
			"bufferView":0,
			"componentType":5126,
			"count":147,
			"max":[
				0.15901096165180206,
				2.34493350982666,
				0.08746141940355301
			],
			"min":[
				-0.21899227797985077,
				2.002835273742676,
				-0.20463453233242035
			],
			"type":"VEC3"
		},
		{
			"bufferView":1,
			"componentType":5126,
			"count":147,
			"type":"VEC3"
		},
		{
			"bufferView":2,
			"componentType":5123,
			"count":147,
			"type":"SCALAR"
		}
	],
	"bufferViews":[
		{
			"buffer":0,
			"byteLength":1764,
			"byteOffset":0,
			"target":34962
		},
		{
			"buffer":0,
			"byteLength":1764,
			"byteOffset":1764,
			"target":34962
		},
		{
			"buffer":0,
			"byteLength":294,
			"byteOffset":3528,
			"target":34963
		}
	],
	"buffers":[
		{
			"byteLength":3824,
			"uri":"boss_head_frag_03.bin"
		}
	]
}
