{
	"asset":{
		"generator":"Khronos glTF Blender I/O v5.0.21",
		"version":"2.0"
	},
	"scene":0,
	"scenes":[
		{
			"name":"__YanEngineExport",
			"nodes":[
				0,
				1,
				2,
				3,
				4,
				5,
				6,
				7,
				8,
				9,
				10,
				11,
				12,
				13
			]
		}
	],
	"nodes":[
		{
			"mesh":0,
			"name":"Building_Custom.001"
		},
		{
			"mesh":1,
			"name":"Decoration_NoCollision.001"
		},
		{
			"mesh":2,
			"name":"Floor.001"
		},
		{
			"mesh":3,
			"name":"Wall_Inner.001"
		},
		{
			"mesh":4,
			"name":"Wall_Left.001"
		},
		{
			"mesh":5,
			"name":"Wall_Right.007"
		},
		{
			"mesh":6,
			"name":"Wall_Right.008"
		},
		{
			"mesh":7,
			"name":"Wall_Right.009"
		},
		{
			"mesh":8,
			"name":"Wall_Right.010"
		},
		{
			"mesh":9,
			"name":"Wall_Right.011"
		},
		{
			"mesh":10,
			"name":"Wall_Right.012"
		},
		{
			"mesh":11,
			"name":"Wall_Right.013"
		},
		{
			"mesh":12,
			"name":"Wall_Rotated.001"
		},
		{
			"mesh":13,
			"name":"Wall_Start.001"
		}
	],
	"meshes":[
		{
			"name":"\u7acb\u65b9\u4f53.018",
			"primitives":[
				{
					"attributes":{
						"POSITION":0,
						"NORMAL":1,
						"TEXCOORD_0":2
					},
					"indices":3
				}
			]
		},
		{
			"name":"\u7acb\u65b9\u4f53.019",
			"primitives":[
				{
					"attributes":{
						"POSITION":4,
						"NORMAL":5,
						"TEXCOORD_0":6
					},
					"indices":3
				}
			]
		},
		{
			"name":"\u7acb\u65b9\u4f53.020",
			"primitives":[
				{
					"attributes":{
						"POSITION":7,
						"NORMAL":8,
						"TEXCOORD_0":9
					},
					"indices":10
				}
			]
		},
		{
			"name":"\u7acb\u65b9\u4f53.021",
			"primitives":[
				{
					"attributes":{
						"POSITION":11,
						"NORMAL":12,
						"TEXCOORD_0":13
					},
					"indices":3
				}
			]
		},
		{
			"name":"\u7acb\u65b9\u4f53.022",
			"primitives":[
				{
					"attributes":{
						"POSITION":14,
						"NORMAL":15,
						"TEXCOORD_0":16
					},
					"indices":17
				}
			]
		},
		{
			"name":"\u7acb\u65b9\u4f53.023",
			"primitives":[
				{
					"attributes":{
						"POSITION":18,
						"NORMAL":19,
						"TEXCOORD_0":20
					},
					"indices":3
				}
			]
		},
		{
			"name":"\u7acb\u65b9\u4f53.024",
			"primitives":[
				{
					"attributes":{
						"POSITION":21,
						"NORMAL":22,
						"TEXCOORD_0":23
					},
					"indices":24
				}
			]
		},
		{
			"name":"\u7acb\u65b9\u4f53.025",
			"primitives":[
				{
					"attributes":{
						"POSITION":25,
						"NORMAL":26,
						"TEXCOORD_0":27
					},
					"indices":3
				}
			]
		},
		{
			"name":"\u7acb\u65b9\u4f53.026",
			"primitives":[
				{
					"attributes":{
						"POSITION":28,
						"NORMAL":29,
						"TEXCOORD_0":30
					},
					"indices":3
				}
			]
		},
		{
			"name":"\u7acb\u65b9\u4f53.027",
			"primitives":[
				{
					"attributes":{
						"POSITION":31,
						"NORMAL":32,
						"TEXCOORD_0":33
					},
					"indices":24
				}
			]
		},
		{
			"name":"\u7acb\u65b9\u4f53.028",
			"primitives":[
				{
					"attributes":{
						"POSITION":34,
						"NORMAL":35,
						"TEXCOORD_0":36
					},
					"indices":24
				}
			]
		},
		{
			"name":"\u7acb\u65b9\u4f53.029",
			"primitives":[
				{
					"attributes":{
						"POSITION":37,
						"NORMAL":38,
						"TEXCOORD_0":39
					},
					"indices":3
				}
			]
		},
		{
			"name":"\u7acb\u65b9\u4f53.030",
			"primitives":[
				{
					"attributes":{
						"POSITION":40,
						"NORMAL":41,
						"TEXCOORD_0":42
					},
					"indices":43
				}
			]
		},
		{
			"name":"\u7acb\u65b9\u4f53.031",
			"primitives":[
				{
					"attributes":{
						"POSITION":44,
						"NORMAL":45,
						"TEXCOORD_0":46
					},
					"indices":3
				}
			]
		}
	],
	"accessors":[
		{
			"bufferView":0,
			"componentType":5126,
			"count":24,
			"max":[
				12,
				4,
				46
			],
			"min":[
				8,
				0,
				42
			],
			"type":"VEC3"
		},
		{
			"bufferView":1,
			"componentType":5126,
			"count":24,
			"type":"VEC3"
		},
		{
			"bufferView":2,
			"componentType":5126,
			"count":24,
			"type":"VEC2"
		},
		{
			"bufferView":3,
			"componentType":5123,
			"count":36,
			"type":"SCALAR"
		},
		{
			"bufferView":4,
			"componentType":5126,
			"count":24,
			"max":[
				-15.300000190734863,
				1.399999976158142,
				22.700000762939453
			],
			"min":[
				-16.700000762939453,
				0,
				21.299999237060547
			],
			"type":"VEC3"
		},
		{
			"bufferView":5,
			"componentType":5126,
			"count":24,
			"type":"VEC3"
		},
		{
			"bufferView":6,
			"componentType":5126,
			"count":24,
			"type":"VEC2"
		},
		{
			"bufferView":7,
			"componentType":5126,
			"count":88,
			"max":[
				14,
				0,
				111.89750671386719
			],
			"min":[
				-43.45359420776367,
				-0.6000000238418579,
				-14
			],
			"type":"VEC3"
		},
		{
			"bufferView":8,
			"componentType":5126,
			"count":88,
			"type":"VEC3"
		},
		{
			"bufferView":9,
			"componentType":5126,
			"count":88,
			"type":"VEC2"
		},
		{
			"bufferView":10,
			"componentType":5123,
			"count":180,
			"type":"SCALAR"
		},
		{
			"bufferView":11,
			"componentType":5126,
			"count":24,
			"max":[
				-8,
				6,
				32.29999923706055
			],
			"min":[
				-16,
				0,
				31.700000762939453
			],
			"type":"VEC3"
		},
		{
			"bufferView":12,
			"componentType":5126,
			"count":24,
			"type":"VEC3"
		},
		{
			"bufferView":13,
			"componentType":5126,
			"count":24,
			"type":"VEC2"
		},
		{
			"bufferView":14,
			"componentType":5126,
			"count":32,
			"max":[
				14.600000381469727,
				6,
				75.19168853759766
			],
			"min":[
				14,
				0,
				-14
			],
			"type":"VEC3"
		},
		{
			"bufferView":15,
			"componentType":5126,
			"count":32,
			"type":"VEC3"
		},
		{
			"bufferView":16,
			"componentType":5126,
			"count":32,
			"type":"VEC2"
		},
		{
			"bufferView":17,
			"componentType":5123,
			"count":60,
			"type":"SCALAR"
		},
		{
			"bufferView":18,
			"componentType":5126,
			"count":24,
			"max":[
				-20,
				6,
				62
			],
			"min":[
				-20.599998474121094,
				0,
				-14
			],
			"type":"VEC3"
		},
		{
			"bufferView":19,
			"componentType":5126,
			"count":24,
			"type":"VEC3"
		},
		{
			"bufferView":20,
			"componentType":5126,
			"count":24,
			"type":"VEC2"
		},
		{
			"bufferView":21,
			"componentType":5126,
			"count":24,
			"max":[
				-19.972332000732422,
				6,
				62.06066131591797
			],
			"min":[
				-95.97233581542969,
				0,
				61.460655212402344
			],
			"type":"VEC3"
		},
		{
			"bufferView":22,
			"componentType":5126,
			"count":24,
			"type":"VEC3"
		},
		{
			"bufferView":23,
			"componentType":5126,
			"count":24,
			"type":"VEC2"
		},
		{
			"bufferView":24,
			"componentType":5123,
			"count":36,
			"type":"SCALAR"
		},
		{
			"bufferView":25,
			"componentType":5126,
			"count":24,
			"max":[
				-43.0789680480957,
				6,
				112.94490814208984
			],
			"min":[
				-43.6789665222168,
				0,
				36.944908142089844
			],
			"type":"VEC3"
		},
		{
			"bufferView":26,
			"componentType":5126,
			"count":24,
			"type":"VEC3"
		},
		{
			"bufferView":27,
			"componentType":5126,
			"count":24,
			"type":"VEC2"
		},
		{
			"bufferView":28,
			"componentType":5126,
			"count":24,
			"max":[
				-19.409425735473633,
				6,
				169.2472381591797
			],
			"min":[
				-20.009424209594727,
				0,
				93.24723815917969
			],
			"type":"VEC3"
		},
		{
			"bufferView":29,
			"componentType":5126,
			"count":24,
			"type":"VEC3"
		},
		{
			"bufferView":30,
			"componentType":5126,
			"count":24,
			"type":"VEC2"
		},
		{
			"bufferView":31,
			"componentType":5126,
			"count":24,
			"max":[
				55.92829513549805,
				5.970084190368652,
				93.86083221435547
			],
			"min":[
				-20.071704864501953,
				-0.029915809631347656,
				93.26082611083984
			],
			"type":"VEC3"
		},
		{
			"bufferView":32,
			"componentType":5126,
			"count":24,
			"type":"VEC3"
		},
		{
			"bufferView":33,
			"componentType":5126,
			"count":24,
			"type":"VEC2"
		},
		{
			"bufferView":34,
			"componentType":5126,
			"count":24,
			"max":[
				75.45304870605469,
				5.970084190368652,
				75.7333984375
			],
			"min":[
				-0.5469474792480469,
				-0.029915809631347656,
				75.13339233398438
			],
			"type":"VEC3"
		},
		{
			"bufferView":35,
			"componentType":5126,
			"count":24,
			"type":"VEC3"
		},
		{
			"bufferView":36,
			"componentType":5126,
			"count":24,
			"type":"VEC2"
		},
		{
			"bufferView":37,
			"componentType":5126,
			"count":24,
			"max":[
				-0.21153444051742554,
				6,
				151.0889892578125
			],
			"min":[
				-0.8115344643592834,
				0,
				75.08899688720703
			],
			"type":"VEC3"
		},
		{
			"bufferView":38,
			"componentType":5126,
			"count":24,
			"type":"VEC3"
		},
		{
			"bufferView":39,
			"componentType":5126,
			"count":24,
			"type":"VEC2"
		},
		{
			"bufferView":40,
			"componentType":5126,
			"count":24,
			"max":[
				11.261600494384766,
				6,
				27.028701782226562
			],
			"min":[
				2.7383999824523926,
				0,
				22.971298217773438
			],
			"type":"VEC3"
		},
		{
			"bufferView":41,
			"componentType":5126,
			"count":24,
			"type":"VEC3"
		},
		{
			"bufferView":42,
			"componentType":5126,
			"count":24,
			"type":"VEC2"
		},
		{
			"bufferView":43,
			"componentType":5123,
			"count":36,
			"type":"SCALAR"
		},
		{
			"bufferView":44,
			"componentType":5126,
			"count":24,
			"max":[
				14,
				6,
				-14
			],
			"min":[
				-20,
				0,
				-14.600000381469727
			],
			"type":"VEC3"
		},
		{
			"bufferView":45,
			"componentType":5126,
			"count":24,
			"type":"VEC3"
		},
		{
			"bufferView":46,
			"componentType":5126,
			"count":24,
			"type":"VEC2"
		}
	],
	"bufferViews":[
		{
			"buffer":0,
			"byteLength":288,
			"byteOffset":0,
			"target":34962
		},
		{
			"buffer":0,
			"byteLength":288,
			"byteOffset":288,
			"target":34962
		},
		{
			"buffer":0,
			"byteLength":192,
			"byteOffset":576,
			"target":34962
		},
		{
			"buffer":0,
			"byteLength":72,
			"byteOffset":768,
			"target":34963
		},
		{
			"buffer":0,
			"byteLength":288,
			"byteOffset":840,
			"target":34962
		},
		{
			"buffer":0,
			"byteLength":288,
			"byteOffset":1128,
			"target":34962
		},
		{
			"buffer":0,
			"byteLength":192,
			"byteOffset":1416,
			"target":34962
		},
		{
			"buffer":0,
			"byteLength":1056,
			"byteOffset":1608,
			"target":34962
		},
		{
			"buffer":0,
			"byteLength":1056,
			"byteOffset":2664,
			"target":34962
		},
		{
			"buffer":0,
			"byteLength":704,
			"byteOffset":3720,
			"target":34962
		},
		{
			"buffer":0,
			"byteLength":360,
			"byteOffset":4424,
			"target":34963
		},
		{
			"buffer":0,
			"byteLength":288,
			"byteOffset":4784,
			"target":34962
		},
		{
			"buffer":0,
			"byteLength":288,
			"byteOffset":5072,
			"target":34962
		},
		{
			"buffer":0,
			"byteLength":192,
			"byteOffset":5360,
			"target":34962
		},
		{
			"buffer":0,
			"byteLength":384,
			"byteOffset":5552,
			"target":34962
		},
		{
			"buffer":0,
			"byteLength":384,
			"byteOffset":5936,
			"target":34962
		},
		{
			"buffer":0,
			"byteLength":256,
			"byteOffset":6320,
			"target":34962
		},
		{
			"buffer":0,
			"byteLength":120,
			"byteOffset":6576,
			"target":34963
		},
		{
			"buffer":0,
			"byteLength":288,
			"byteOffset":6696,
			"target":34962
		},
		{
			"buffer":0,
			"byteLength":288,
			"byteOffset":6984,
			"target":34962
		},
		{
			"buffer":0,
			"byteLength":192,
			"byteOffset":7272,
			"target":34962
		},
		{
			"buffer":0,
			"byteLength":288,
			"byteOffset":7464,
			"target":34962
		},
		{
			"buffer":0,
			"byteLength":288,
			"byteOffset":7752,
			"target":34962
		},
		{
			"buffer":0,
			"byteLength":192,
			"byteOffset":8040,
			"target":34962
		},
		{
			"buffer":0,
			"byteLength":72,
			"byteOffset":8232,
			"target":34963
		},
		{
			"buffer":0,
			"byteLength":288,
			"byteOffset":8304,
			"target":34962
		},
		{
			"buffer":0,
			"byteLength":288,
			"byteOffset":8592,
			"target":34962
		},
		{
			"buffer":0,
			"byteLength":192,
			"byteOffset":8880,
			"target":34962
		},
		{
			"buffer":0,
			"byteLength":288,
			"byteOffset":9072,
			"target":34962
		},
		{
			"buffer":0,
			"byteLength":288,
			"byteOffset":9360,
			"target":34962
		},
		{
			"buffer":0,
			"byteLength":192,
			"byteOffset":9648,
			"target":34962
		},
		{
			"buffer":0,
			"byteLength":288,
			"byteOffset":9840,
			"target":34962
		},
		{
			"buffer":0,
			"byteLength":288,
			"byteOffset":10128,
			"target":34962
		},
		{
			"buffer":0,
			"byteLength":192,
			"byteOffset":10416,
			"target":34962
		},
		{
			"buffer":0,
			"byteLength":288,
			"byteOffset":10608,
			"target":34962
		},
		{
			"buffer":0,
			"byteLength":288,
			"byteOffset":10896,
			"target":34962
		},
		{
			"buffer":0,
			"byteLength":192,
			"byteOffset":11184,
			"target":34962
		},
		{
			"buffer":0,
			"byteLength":288,
			"byteOffset":11376,
			"target":34962
		},
		{
			"buffer":0,
			"byteLength":288,
			"byteOffset":11664,
			"target":34962
		},
		{
			"buffer":0,
			"byteLength":192,
			"byteOffset":11952,
			"target":34962
		},
		{
			"buffer":0,
			"byteLength":288,
			"byteOffset":12144,
			"target":34962
		},
		{
			"buffer":0,
			"byteLength":288,
			"byteOffset":12432,
			"target":34962
		},
		{
			"buffer":0,
			"byteLength":192,
			"byteOffset":12720,
			"target":34962
		},
		{
			"buffer":0,
			"byteLength":72,
			"byteOffset":12912,
			"target":34963
		},
		{
			"buffer":0,
			"byteLength":288,
			"byteOffset":12984,
			"target":34962
		},
		{
			"buffer":0,
			"byteLength":288,
			"byteOffset":13272,
			"target":34962
		},
		{
			"buffer":0,
			"byteLength":192,
			"byteOffset":13560,
			"target":34962
		}
	],
	"buffers":[
		{
			"byteLength":13752,
			"uri":"stage02.bin"
		}
	]
}
