{
	"asset":{
		"generator":"Khronos glTF Blender I/O v4.4.56",
		"version":"2.0"
	},
	"scene":0,
	"scenes":[
		{
			"name":"Scene",
			"nodes":[
				22
			]
		}
	],
	"nodes":[
		{
			"name":"\u30dc\u30fc\u30f3.004",
			"rotation":[
				1.4901166522918174e-08,
				-1.4210854715202004e-14,
				-4.76837621173282e-16,
				1
			],
			"scale":[
				1,
				0.9999998807907104,
				1
			],
			"translation":[
				-1.6940658945086007e-21,
				0.40756797790527344,
				-7.105422275403318e-15
			]
		},
		{
			"children":[
				0
			],
			"name":"\u30dc\u30fc\u30f3.003",
			"rotation":[
				0.08978341519832611,
				-3.5480798299403205e-09,
				2.2384705644640235e-08,
				0.9959613084793091
			],
			"scale":[
				1,
				1.0000001192092896,
				0.9999999403953552
			],
			"translation":[
				-4.488188724209412e-15,
				0.4090871512889862,
				-1.850474973252858e-08
			]
		},
		{
			"name":"\u30dc\u30fc\u30f3.012",
			"rotation":[
				0.013854116201400757,
				8.852661181890653e-08,
				8.698977893573101e-08,
				0.9999040365219116
			],
			"scale":[
				1,
				0.9999999403953552,
				1
			],
			"translation":[
				5.961790634501085e-07,
				0.7789593935012817,
				0.007599654141813517
			]
		},
		{
			"children":[
				2
			],
			"name":"\u30dc\u30fc\u30f3.011",
			"rotation":[
				9.43056122082453e-09,
				-2.343459328812969e-07,
				6.687990389764309e-05,
				1
			],
			"translation":[
				3.9259564488247634e-08,
				0.7880157232284546,
				0.0026453190948814154
			]
		},
		{
			"children":[
				3
			],
			"name":"\u30dc\u30fc\u30f3.010",
			"rotation":[
				0.0781010314822197,
				-0.0004489276616368443,
				0.005729286931455135,
				0.996928870677948
			],
			"scale":[
				1,
				1,
				0.9999999403953552
			],
			"translation":[
				8.110461635624233e-09,
				0.6698557734489441,
				-0.0033303811214864254
			]
		},
		{
			"children":[
				4
			],
			"name":"\u30dc\u30fc\u30f3.009",
			"rotation":[
				0.008289190009236336,
				0.11829626560211182,
				-0.6971413493156433,
				0.7070581912994385
			],
			"scale":[
				0.9999998807907104,
				0.9999998211860657,
				0.9999999403953552
			],
			"translation":[
				3.650110214081792e-09,
				0.41187870502471924,
				-0.015354715287685394
			]
		},
		{
			"name":"\u30dc\u30fc\u30f3.016",
			"rotation":[
				1.6275869541004795e-13,
				-5.276342562865466e-07,
				3.059394657611847e-07,
				1
			],
			"scale":[
				0.9999999403953552,
				0.9999999403953552,
				1
			],
			"translation":[
				5.383821388704746e-08,
				0.7789590358734131,
				0.001702027628198266
			]
		},
		{
			"children":[
				6
			],
			"name":"\u30dc\u30fc\u30f3.015",
			"rotation":[
				-8.052000843861151e-09,
				2.7437687322162674e-07,
				-6.65972547722049e-05,
				1
			],
			"scale":[
				0.9999999403953552,
				0.9999999403953552,
				1
			],
			"translation":[
				6.751502610313764e-07,
				0.7880155444145203,
				-0.004678449127823114
			]
		},
		{
			"children":[
				7
			],
			"name":"\u30dc\u30fc\u30f3.014",
			"rotation":[
				0.05014437809586525,
				0.7059162259101868,
				-0.04727061465382576,
				0.7049350142478943
			],
			"scale":[
				1.0000001192092896,
				1.0000003576278687,
				1
			],
			"translation":[
				0.003395125502720475,
				0.6669481992721558,
				0.010364146903157234
			]
		},
		{
			"children":[
				8
			],
			"name":"\u30dc\u30fc\u30f3.013",
			"rotation":[
				0.5007869005203247,
				-0.5826161503791809,
				0.47883281111717224,
				0.4248412549495697
			],
			"scale":[
				1,
				1.0000001192092896,
				0.9999998807907104
			],
			"translation":[
				5.916301226704945e-09,
				0.41150033473968506,
				-0.013267734088003635
			]
		},
		{
			"children":[
				1,
				5,
				9
			],
			"name":"\u30dc\u30fc\u30f3.002",
			"rotation":[
				-0.034189771860837936,
				1.5451776524955108e-09,
				-8.593093347997183e-09,
				0.9994153380393982
			],
			"translation":[
				-1.0610323730730897e-09,
				0.5481774806976318,
				0.004247605800628662
			]
		},
		{
			"children":[
				10
			],
			"name":"\u30dc\u30fc\u30f3.001",
			"rotation":[
				-0.05560676008462906,
				2.526818532189168e-09,
				-1.3749244409666517e-08,
				0.9984527826309204
			],
			"translation":[
				-6.1032724013587725e-12,
				0.7376241683959961,
				2.500589471310377e-05
			]
		},
		{
			"name":"\u30dc\u30fc\u30f3.008",
			"rotation":[
				-0.0017773868748918176,
				-0.0008976082899607718,
				-0.6481425762176514,
				0.7615163922309875
			],
			"scale":[
				1,
				0.9999999403953552,
				1
			],
			"translation":[
				-0.10239888727664948,
				1.5651665925979614,
				0.013159048743546009
			]
		},
		{
			"children":[
				12
			],
			"name":"\u30dc\u30fc\u30f3.007",
			"rotation":[
				0.001527239684946835,
				-8.277895176433958e-06,
				-0.00677674263715744,
				0.999975860118866
			],
			"translation":[
				-0.0032639200799167156,
				1.4603573083877563,
				0.009006790816783905
			]
		},
		{
			"children":[
				13
			],
			"name":"\u30dc\u30fc\u30f3.006",
			"rotation":[
				-0.4083021581172943,
				0.0027655456215143204,
				0.006186820100992918,
				0.9128217101097107
			],
			"scale":[
				1,
				1.0000001192092896,
				1
			],
			"translation":[
				8.009202190351061e-10,
				0.4106750190258026,
				1.264516242827085e-07
			]
		},
		{
			"children":[
				14
			],
			"name":"\u30dc\u30fc\u30f3.005",
			"rotation":[
				-0.644498348236084,
				-0.29080474376678467,
				-0.6445407271385193,
				0.29089823365211487
			],
			"scale":[
				0.9999999403953552,
				1,
				1
			],
			"translation":[
				-1.277094341389784e-08,
				3.8096186472103e-07,
				-0.00451734010130167
			]
		},
		{
			"name":"\u30dc\u30fc\u30f3.020",
			"rotation":[
				0.007379571907222271,
				0.006790656130760908,
				-0.6706096529960632,
				0.7417426705360413
			],
			"scale":[
				0.9999998807907104,
				0.9999998211860657,
				0.9999999403953552
			],
			"translation":[
				-0.008573394268751144,
				1.568271517753601,
				0.012409569695591927
			]
		},
		{
			"children":[
				16
			],
			"name":"\u30dc\u30fc\u30f3.019",
			"rotation":[
				-0.00380851817317307,
				-8.089174662018195e-05,
				0.023156490176916122,
				0.9997245669364929
			],
			"scale":[
				1,
				0.9999999403953552,
				1
			],
			"translation":[
				-0.003264655824750662,
				1.4603062868118286,
				-0.0013280772836878896
			]
		},
		{
			"children":[
				17
			],
			"name":"\u30dc\u30fc\u30f3.018",
			"rotation":[
				0.40830177068710327,
				-0.002765292301774025,
				0.006186619866639376,
				0.9128218293190002
			],
			"scale":[
				1,
				0.9999998807907104,
				1
			],
			"translation":[
				2.7044052330893464e-08,
				0.41067516803741455,
				-2.4829216727084713e-07
			]
		},
		{
			"children":[
				18
			],
			"name":"\u30dc\u30fc\u30f3.017",
			"rotation":[
				0.6445408463478088,
				-0.29089826345443726,
				0.644498348236084,
				0.2908044457435608
			],
			"scale":[
				0.9999998211860657,
				0.9999998807907104,
				1
			],
			"translation":[
				6.111883266157747e-08,
				6.193804438225925e-07,
				-0.00451734010130167
			]
		},
		{
			"children":[
				11,
				15,
				19
			],
			"name":"\u30dc\u30fc\u30f3",
			"rotation":[
				-7.258465484483168e-05,
				1.2236375823704293e-07,
				-8.880042534631372e-12,
				1
			],
			"translation":[
				0,
				3.574474811553955,
				0.1299723982810974
			]
		},
		{
			"mesh":0,
			"name":"Cube.001",
			"skin":0
		},
		{
			"children":[
				21,
				20
			],
			"name":"\u30a2\u30fc\u30de\u30c1\u30e5\u30a2"
		}
	],
	"animations":[
		{
			"channels":[
				{
					"sampler":0,
					"target":{
						"node":20,
						"path":"translation"
					}
				},
				{
					"sampler":1,
					"target":{
						"node":20,
						"path":"rotation"
					}
				},
				{
					"sampler":2,
					"target":{
						"node":20,
						"path":"scale"
					}
				},
				{
					"sampler":3,
					"target":{
						"node":11,
						"path":"translation"
					}
				},
				{
					"sampler":4,
					"target":{
						"node":11,
						"path":"rotation"
					}
				},
				{
					"sampler":5,
					"target":{
						"node":11,
						"path":"scale"
					}
				},
				{
					"sampler":6,
					"target":{
						"node":10,
						"path":"translation"
					}
				},
				{
					"sampler":7,
					"target":{
						"node":10,
						"path":"rotation"
					}
				},
				{
					"sampler":8,
					"target":{
						"node":10,
						"path":"scale"
					}
				},
				{
					"sampler":9,
					"target":{
						"node":1,
						"path":"translation"
					}
				},
				{
					"sampler":10,
					"target":{
						"node":1,
						"path":"rotation"
					}
				},
				{
					"sampler":11,
					"target":{
						"node":1,
						"path":"scale"
					}
				},
				{
					"sampler":12,
					"target":{
						"node":0,
						"path":"translation"
					}
				},
				{
					"sampler":13,
					"target":{
						"node":0,
						"path":"rotation"
					}
				},
				{
					"sampler":14,
					"target":{
						"node":0,
						"path":"scale"
					}
				},
				{
					"sampler":15,
					"target":{
						"node":5,
						"path":"translation"
					}
				},
				{
					"sampler":16,
					"target":{
						"node":5,
						"path":"rotation"
					}
				},
				{
					"sampler":17,
					"target":{
						"node":5,
						"path":"scale"
					}
				},
				{
					"sampler":18,
					"target":{
						"node":4,
						"path":"translation"
					}
				},
				{
					"sampler":19,
					"target":{
						"node":4,
						"path":"rotation"
					}
				},
				{
					"sampler":20,
					"target":{
						"node":4,
						"path":"scale"
					}
				},
				{
					"sampler":21,
					"target":{
						"node":3,
						"path":"translation"
					}
				},
				{
					"sampler":22,
					"target":{
						"node":3,
						"path":"rotation"
					}
				},
				{
					"sampler":23,
					"target":{
						"node":3,
						"path":"scale"
					}
				},
				{
					"sampler":24,
					"target":{
						"node":2,
						"path":"translation"
					}
				},
				{
					"sampler":25,
					"target":{
						"node":2,
						"path":"rotation"
					}
				},
				{
					"sampler":26,
					"target":{
						"node":2,
						"path":"scale"
					}
				},
				{
					"sampler":27,
					"target":{
						"node":9,
						"path":"translation"
					}
				},
				{
					"sampler":28,
					"target":{
						"node":9,
						"path":"rotation"
					}
				},
				{
					"sampler":29,
					"target":{
						"node":9,
						"path":"scale"
					}
				},
				{
					"sampler":30,
					"target":{
						"node":8,
						"path":"translation"
					}
				},
				{
					"sampler":31,
					"target":{
						"node":8,
						"path":"rotation"
					}
				},
				{
					"sampler":32,
					"target":{
						"node":8,
						"path":"scale"
					}
				},
				{
					"sampler":33,
					"target":{
						"node":7,
						"path":"translation"
					}
				},
				{
					"sampler":34,
					"target":{
						"node":7,
						"path":"rotation"
					}
				},
				{
					"sampler":35,
					"target":{
						"node":7,
						"path":"scale"
					}
				},
				{
					"sampler":36,
					"target":{
						"node":6,
						"path":"translation"
					}
				},
				{
					"sampler":37,
					"target":{
						"node":6,
						"path":"rotation"
					}
				},
				{
					"sampler":38,
					"target":{
						"node":6,
						"path":"scale"
					}
				},
				{
					"sampler":39,
					"target":{
						"node":15,
						"path":"translation"
					}
				},
				{
					"sampler":40,
					"target":{
						"node":15,
						"path":"rotation"
					}
				},
				{
					"sampler":41,
					"target":{
						"node":15,
						"path":"scale"
					}
				},
				{
					"sampler":42,
					"target":{
						"node":14,
						"path":"translation"
					}
				},
				{
					"sampler":43,
					"target":{
						"node":14,
						"path":"rotation"
					}
				},
				{
					"sampler":44,
					"target":{
						"node":14,
						"path":"scale"
					}
				},
				{
					"sampler":45,
					"target":{
						"node":13,
						"path":"translation"
					}
				},
				{
					"sampler":46,
					"target":{
						"node":13,
						"path":"rotation"
					}
				},
				{
					"sampler":47,
					"target":{
						"node":13,
						"path":"scale"
					}
				},
				{
					"sampler":48,
					"target":{
						"node":12,
						"path":"translation"
					}
				},
				{
					"sampler":49,
					"target":{
						"node":12,
						"path":"rotation"
					}
				},
				{
					"sampler":50,
					"target":{
						"node":12,
						"path":"scale"
					}
				},
				{
					"sampler":51,
					"target":{
						"node":19,
						"path":"translation"
					}
				},
				{
					"sampler":52,
					"target":{
						"node":19,
						"path":"rotation"
					}
				},
				{
					"sampler":53,
					"target":{
						"node":19,
						"path":"scale"
					}
				},
				{
					"sampler":54,
					"target":{
						"node":18,
						"path":"translation"
					}
				},
				{
					"sampler":55,
					"target":{
						"node":18,
						"path":"rotation"
					}
				},
				{
					"sampler":56,
					"target":{
						"node":18,
						"path":"scale"
					}
				},
				{
					"sampler":57,
					"target":{
						"node":17,
						"path":"translation"
					}
				},
				{
					"sampler":58,
					"target":{
						"node":17,
						"path":"rotation"
					}
				},
				{
					"sampler":59,
					"target":{
						"node":17,
						"path":"scale"
					}
				},
				{
					"sampler":60,
					"target":{
						"node":16,
						"path":"translation"
					}
				},
				{
					"sampler":61,
					"target":{
						"node":16,
						"path":"rotation"
					}
				},
				{
					"sampler":62,
					"target":{
						"node":16,
						"path":"scale"
					}
				}
			],
			"name":"Idle",
			"samplers":[
				{
					"input":15,
					"interpolation":"LINEAR",
					"output":16
				},
				{
					"input":17,
					"interpolation":"STEP",
					"output":18
				},
				{
					"input":17,
					"interpolation":"STEP",
					"output":19
				},
				{
					"input":17,
					"interpolation":"STEP",
					"output":20
				},
				{
					"input":15,
					"interpolation":"LINEAR",
					"output":21
				},
				{
					"input":17,
					"interpolation":"STEP",
					"output":22
				},
				{
					"input":17,
					"interpolation":"STEP",
					"output":23
				},
				{
					"input":17,
					"interpolation":"STEP",
					"output":24
				},
				{
					"input":17,
					"interpolation":"STEP",
					"output":25
				},
				{
					"input":17,
					"interpolation":"STEP",
					"output":26
				},
				{
					"input":17,
					"interpolation":"STEP",
					"output":27
				},
				{
					"input":17,
					"interpolation":"STEP",
					"output":28
				},
				{
					"input":17,
					"interpolation":"STEP",
					"output":29
				},
				{
					"input":15,
					"interpolation":"LINEAR",
					"output":30
				},
				{
					"input":17,
					"interpolation":"STEP",
					"output":31
				},
				{
					"input":17,
					"interpolation":"STEP",
					"output":32
				},
				{
					"input":17,
					"interpolation":"STEP",
					"output":33
				},
				{
					"input":17,
					"interpolation":"STEP",
					"output":34
				},
				{
					"input":17,
					"interpolation":"STEP",
					"output":35
				},
				{
					"input":17,
					"interpolation":"STEP",
					"output":36
				},
				{
					"input":17,
					"interpolation":"STEP",
					"output":37
				},
				{
					"input":17,
					"interpolation":"STEP",
					"output":38
				},
				{
					"input":17,
					"interpolation":"STEP",
					"output":39
				},
				{
					"input":17,
					"interpolation":"STEP",
					"output":40
				},
				{
					"input":17,
					"interpolation":"STEP",
					"output":41
				},
				{
					"input":17,
					"interpolation":"STEP",
					"output":42
				},
				{
					"input":17,
					"interpolation":"STEP",
					"output":43
				},
				{
					"input":17,
					"interpolation":"STEP",
					"output":44
				},
				{
					"input":17,
					"interpolation":"STEP",
					"output":45
				},
				{
					"input":17,
					"interpolation":"STEP",
					"output":46
				},
				{
					"input":17,
					"interpolation":"STEP",
					"output":47
				},
				{
					"input":17,
					"interpolation":"STEP",
					"output":48
				},
				{
					"input":17,
					"interpolation":"STEP",
					"output":49
				},
				{
					"input":17,
					"interpolation":"STEP",
					"output":50
				},
				{
					"input":17,
					"interpolation":"STEP",
					"output":51
				},
				{
					"input":17,
					"interpolation":"STEP",
					"output":52
				},
				{
					"input":17,
					"interpolation":"STEP",
					"output":53
				},
				{
					"input":17,
					"interpolation":"STEP",
					"output":54
				},
				{
					"input":17,
					"interpolation":"STEP",
					"output":55
				},
				{
					"input":17,
					"interpolation":"STEP",
					"output":56
				},
				{
					"input":17,
					"interpolation":"STEP",
					"output":57
				},
				{
					"input":17,
					"interpolation":"STEP",
					"output":58
				},
				{
					"input":17,
					"interpolation":"STEP",
					"output":59
				},
				{
					"input":15,
					"interpolation":"LINEAR",
					"output":60
				},
				{
					"input":17,
					"interpolation":"STEP",
					"output":61
				},
				{
					"input":17,
					"interpolation":"STEP",
					"output":62
				},
				{
					"input":15,
					"interpolation":"LINEAR",
					"output":63
				},
				{
					"input":17,
					"interpolation":"STEP",
					"output":64
				},
				{
					"input":17,
					"interpolation":"STEP",
					"output":65
				},
				{
					"input":17,
					"interpolation":"STEP",
					"output":66
				},
				{
					"input":17,
					"interpolation":"STEP",
					"output":67
				},
				{
					"input":17,
					"interpolation":"STEP",
					"output":68
				},
				{
					"input":17,
					"interpolation":"STEP",
					"output":69
				},
				{
					"input":17,
					"interpolation":"STEP",
					"output":70
				},
				{
					"input":17,
					"interpolation":"STEP",
					"output":71
				},
				{
					"input":15,
					"interpolation":"LINEAR",
					"output":72
				},
				{
					"input":17,
					"interpolation":"STEP",
					"output":73
				},
				{
					"input":17,
					"interpolation":"STEP",
					"output":74
				},
				{
					"input":17,
					"interpolation":"STEP",
					"output":75
				},
				{
					"input":17,
					"interpolation":"STEP",
					"output":76
				},
				{
					"input":17,
					"interpolation":"STEP",
					"output":77
				},
				{
					"input":17,
					"interpolation":"STEP",
					"output":78
				},
				{
					"input":17,
					"interpolation":"STEP",
					"output":79
				}
			]
		},
		{
			"channels":[
				{
					"sampler":0,
					"target":{
						"node":20,
						"path":"translation"
					}
				},
				{
					"sampler":1,
					"target":{
						"node":20,
						"path":"rotation"
					}
				},
				{
					"sampler":2,
					"target":{
						"node":20,
						"path":"scale"
					}
				},
				{
					"sampler":3,
					"target":{
						"node":11,
						"path":"translation"
					}
				},
				{
					"sampler":4,
					"target":{
						"node":11,
						"path":"rotation"
					}
				},
				{
					"sampler":5,
					"target":{
						"node":11,
						"path":"scale"
					}
				},
				{
					"sampler":6,
					"target":{
						"node":10,
						"path":"translation"
					}
				},
				{
					"sampler":7,
					"target":{
						"node":10,
						"path":"rotation"
					}
				},
				{
					"sampler":8,
					"target":{
						"node":10,
						"path":"scale"
					}
				},
				{
					"sampler":9,
					"target":{
						"node":1,
						"path":"translation"
					}
				},
				{
					"sampler":10,
					"target":{
						"node":1,
						"path":"rotation"
					}
				},
				{
					"sampler":11,
					"target":{
						"node":1,
						"path":"scale"
					}
				},
				{
					"sampler":12,
					"target":{
						"node":0,
						"path":"translation"
					}
				},
				{
					"sampler":13,
					"target":{
						"node":0,
						"path":"rotation"
					}
				},
				{
					"sampler":14,
					"target":{
						"node":0,
						"path":"scale"
					}
				},
				{
					"sampler":15,
					"target":{
						"node":5,
						"path":"translation"
					}
				},
				{
					"sampler":16,
					"target":{
						"node":5,
						"path":"rotation"
					}
				},
				{
					"sampler":17,
					"target":{
						"node":5,
						"path":"scale"
					}
				},
				{
					"sampler":18,
					"target":{
						"node":4,
						"path":"translation"
					}
				},
				{
					"sampler":19,
					"target":{
						"node":4,
						"path":"rotation"
					}
				},
				{
					"sampler":20,
					"target":{
						"node":4,
						"path":"scale"
					}
				},
				{
					"sampler":21,
					"target":{
						"node":3,
						"path":"translation"
					}
				},
				{
					"sampler":22,
					"target":{
						"node":3,
						"path":"rotation"
					}
				},
				{
					"sampler":23,
					"target":{
						"node":3,
						"path":"scale"
					}
				},
				{
					"sampler":24,
					"target":{
						"node":2,
						"path":"translation"
					}
				},
				{
					"sampler":25,
					"target":{
						"node":2,
						"path":"rotation"
					}
				},
				{
					"sampler":26,
					"target":{
						"node":2,
						"path":"scale"
					}
				},
				{
					"sampler":27,
					"target":{
						"node":9,
						"path":"translation"
					}
				},
				{
					"sampler":28,
					"target":{
						"node":9,
						"path":"rotation"
					}
				},
				{
					"sampler":29,
					"target":{
						"node":9,
						"path":"scale"
					}
				},
				{
					"sampler":30,
					"target":{
						"node":8,
						"path":"translation"
					}
				},
				{
					"sampler":31,
					"target":{
						"node":8,
						"path":"rotation"
					}
				},
				{
					"sampler":32,
					"target":{
						"node":8,
						"path":"scale"
					}
				},
				{
					"sampler":33,
					"target":{
						"node":7,
						"path":"translation"
					}
				},
				{
					"sampler":34,
					"target":{
						"node":7,
						"path":"rotation"
					}
				},
				{
					"sampler":35,
					"target":{
						"node":7,
						"path":"scale"
					}
				},
				{
					"sampler":36,
					"target":{
						"node":6,
						"path":"translation"
					}
				},
				{
					"sampler":37,
					"target":{
						"node":6,
						"path":"rotation"
					}
				},
				{
					"sampler":38,
					"target":{
						"node":6,
						"path":"scale"
					}
				},
				{
					"sampler":39,
					"target":{
						"node":15,
						"path":"translation"
					}
				},
				{
					"sampler":40,
					"target":{
						"node":15,
						"path":"rotation"
					}
				},
				{
					"sampler":41,
					"target":{
						"node":15,
						"path":"scale"
					}
				},
				{
					"sampler":42,
					"target":{
						"node":14,
						"path":"translation"
					}
				},
				{
					"sampler":43,
					"target":{
						"node":14,
						"path":"rotation"
					}
				},
				{
					"sampler":44,
					"target":{
						"node":14,
						"path":"scale"
					}
				},
				{
					"sampler":45,
					"target":{
						"node":13,
						"path":"translation"
					}
				},
				{
					"sampler":46,
					"target":{
						"node":13,
						"path":"rotation"
					}
				},
				{
					"sampler":47,
					"target":{
						"node":13,
						"path":"scale"
					}
				},
				{
					"sampler":48,
					"target":{
						"node":12,
						"path":"translation"
					}
				},
				{
					"sampler":49,
					"target":{
						"node":12,
						"path":"rotation"
					}
				},
				{
					"sampler":50,
					"target":{
						"node":12,
						"path":"scale"
					}
				},
				{
					"sampler":51,
					"target":{
						"node":19,
						"path":"translation"
					}
				},
				{
					"sampler":52,
					"target":{
						"node":19,
						"path":"rotation"
					}
				},
				{
					"sampler":53,
					"target":{
						"node":19,
						"path":"scale"
					}
				},
				{
					"sampler":54,
					"target":{
						"node":18,
						"path":"translation"
					}
				},
				{
					"sampler":55,
					"target":{
						"node":18,
						"path":"rotation"
					}
				},
				{
					"sampler":56,
					"target":{
						"node":18,
						"path":"scale"
					}
				},
				{
					"sampler":57,
					"target":{
						"node":17,
						"path":"translation"
					}
				},
				{
					"sampler":58,
					"target":{
						"node":17,
						"path":"rotation"
					}
				},
				{
					"sampler":59,
					"target":{
						"node":17,
						"path":"scale"
					}
				},
				{
					"sampler":60,
					"target":{
						"node":16,
						"path":"translation"
					}
				},
				{
					"sampler":61,
					"target":{
						"node":16,
						"path":"rotation"
					}
				},
				{
					"sampler":62,
					"target":{
						"node":16,
						"path":"scale"
					}
				},
				{
					"sampler":63,
					"target":{
						"node":22,
						"path":"translation"
					}
				},
				{
					"sampler":64,
					"target":{
						"node":22,
						"path":"rotation"
					}
				},
				{
					"sampler":65,
					"target":{
						"node":22,
						"path":"scale"
					}
				}
			],
			"name":"\u30a2\u30fc\u30de\u30c1\u30e5\u30a2.001|\u30a2\u30fc\u30de\u30c1\u30e5\u30a2|\u30a2\u30fc\u30de\u30c1\u30e5\u30a2\u30a2",
			"samplers":[
				{
					"input":80,
					"interpolation":"LINEAR",
					"output":81
				},
				{
					"input":82,
					"interpolation":"STEP",
					"output":83
				},
				{
					"input":82,
					"interpolation":"STEP",
					"output":84
				},
				{
					"input":82,
					"interpolation":"LINEAR",
					"output":85
				},
				{
					"input":82,
					"interpolation":"STEP",
					"output":86
				},
				{
					"input":82,
					"interpolation":"STEP",
					"output":87
				},
				{
					"input":82,
					"interpolation":"LINEAR",
					"output":88
				},
				{
					"input":82,
					"interpolation":"STEP",
					"output":89
				},
				{
					"input":82,
					"interpolation":"STEP",
					"output":90
				},
				{
					"input":82,
					"interpolation":"LINEAR",
					"output":91
				},
				{
					"input":82,
					"interpolation":"STEP",
					"output":92
				},
				{
					"input":82,
					"interpolation":"STEP",
					"output":93
				},
				{
					"input":82,
					"interpolation":"LINEAR",
					"output":94
				},
				{
					"input":82,
					"interpolation":"STEP",
					"output":95
				},
				{
					"input":82,
					"interpolation":"STEP",
					"output":96
				},
				{
					"input":82,
					"interpolation":"LINEAR",
					"output":97
				},
				{
					"input":82,
					"interpolation":"STEP",
					"output":98
				},
				{
					"input":82,
					"interpolation":"STEP",
					"output":99
				},
				{
					"input":82,
					"interpolation":"LINEAR",
					"output":100
				},
				{
					"input":80,
					"interpolation":"LINEAR",
					"output":101
				},
				{
					"input":82,
					"interpolation":"LINEAR",
					"output":102
				},
				{
					"input":82,
					"interpolation":"LINEAR",
					"output":103
				},
				{
					"input":80,
					"interpolation":"LINEAR",
					"output":104
				},
				{
					"input":82,
					"interpolation":"LINEAR",
					"output":105
				},
				{
					"input":82,
					"interpolation":"LINEAR",
					"output":106
				},
				{
					"input":80,
					"interpolation":"LINEAR",
					"output":107
				},
				{
					"input":82,
					"interpolation":"STEP",
					"output":108
				},
				{
					"input":82,
					"interpolation":"LINEAR",
					"output":109
				},
				{
					"input":82,
					"interpolation":"STEP",
					"output":110
				},
				{
					"input":82,
					"interpolation":"STEP",
					"output":111
				},
				{
					"input":82,
					"interpolation":"LINEAR",
					"output":112
				},
				{
					"input":80,
					"interpolation":"LINEAR",
					"output":113
				},
				{
					"input":82,
					"interpolation":"LINEAR",
					"output":114
				},
				{
					"input":82,
					"interpolation":"LINEAR",
					"output":115
				},
				{
					"input":80,
					"interpolation":"LINEAR",
					"output":116
				},
				{
					"input":82,
					"interpolation":"LINEAR",
					"output":117
				},
				{
					"input":82,
					"interpolation":"LINEAR",
					"output":118
				},
				{
					"input":80,
					"interpolation":"LINEAR",
					"output":119
				},
				{
					"input":82,
					"interpolation":"STEP",
					"output":120
				},
				{
					"input":82,
					"interpolation":"LINEAR",
					"output":121
				},
				{
					"input":82,
					"interpolation":"STEP",
					"output":122
				},
				{
					"input":82,
					"interpolation":"STEP",
					"output":123
				},
				{
					"input":80,
					"interpolation":"LINEAR",
					"output":124
				},
				{
					"input":80,
					"interpolation":"LINEAR",
					"output":125
				},
				{
					"input":82,
					"interpolation":"STEP",
					"output":126
				},
				{
					"input":82,
					"interpolation":"LINEAR",
					"output":127
				},
				{
					"input":80,
					"interpolation":"LINEAR",
					"output":128
				},
				{
					"input":82,
					"interpolation":"LINEAR",
					"output":129
				},
				{
					"input":82,
					"interpolation":"LINEAR",
					"output":130
				},
				{
					"input":80,
					"interpolation":"LINEAR",
					"output":131
				},
				{
					"input":82,
					"interpolation":"LINEAR",
					"output":132
				},
				{
					"input":82,
					"interpolation":"LINEAR",
					"output":133
				},
				{
					"input":82,
					"interpolation":"STEP",
					"output":134
				},
				{
					"input":82,
					"interpolation":"STEP",
					"output":135
				},
				{
					"input":80,
					"interpolation":"LINEAR",
					"output":136
				},
				{
					"input":80,
					"interpolation":"LINEAR",
					"output":137
				},
				{
					"input":82,
					"interpolation":"LINEAR",
					"output":138
				},
				{
					"input":82,
					"interpolation":"LINEAR",
					"output":139
				},
				{
					"input":80,
					"interpolation":"LINEAR",
					"output":140
				},
				{
					"input":82,
					"interpolation":"LINEAR",
					"output":141
				},
				{
					"input":82,
					"interpolation":"LINEAR",
					"output":142
				},
				{
					"input":80,
					"interpolation":"LINEAR",
					"output":143
				},
				{
					"input":82,
					"interpolation":"LINEAR",
					"output":144
				},
				{
					"input":82,
					"interpolation":"STEP",
					"output":145
				},
				{
					"input":82,
					"interpolation":"STEP",
					"output":146
				},
				{
					"input":82,
					"interpolation":"STEP",
					"output":147
				}
			]
		}
	],
	"materials":[
		{
			"doubleSided":true,
			"name":"Material.001",
			"pbrMetallicRoughness":{
				"baseColorFactor":[
					0.800000011920929,
					0.800000011920929,
					0.800000011920929,
					1
				],
				"metallicFactor":0,
				"roughnessFactor":0.5
			}
		}
	],
	"meshes":[
		{
			"name":"Cube.001",
			"primitives":[
				{
					"attributes":{
						"POSITION":0,
						"NORMAL":1,
						"TEXCOORD_0":2,
						"TEXCOORD_1":3,
						"JOINTS_0":4,
						"WEIGHTS_0":5
					},
					"indices":6,
					"material":0
				},
				{
					"attributes":{
						"POSITION":7,
						"NORMAL":8,
						"TEXCOORD_0":9,
						"TEXCOORD_1":10,
						"JOINTS_0":11,
						"WEIGHTS_0":12
					},
					"indices":13
				}
			]
		}
	],
	"skins":[
		{
			"inverseBindMatrices":14,
			"joints":[
				20,
				11,
				10,
				1,
				0,
				5,
				4,
				3,
				2,
				9,
				8,
				7,
				6,
				15,
				14,
				13,
				12,
				19,
				18,
				17,
				16
			],
			"name":"\u30a2\u30fc\u30de\u30c1\u30e5\u30a2"
		}
	],
	"accessors":[
		{
			"bufferView":0,
			"componentType":5126,
			"count":576,
			"max":[
				0.5491260290145874,
				6.6588521003723145,
				0.7222249507904053
			],
			"min":[
				-0.5491260290145874,
				5.470578670501709,
				-0.5876542925834656
			],
			"type":"VEC3"
		},
		{
			"bufferView":1,
			"componentType":5126,
			"count":576,
			"type":"VEC3"
		},
		{
			"bufferView":2,
			"componentType":5126,
			"count":576,
			"type":"VEC2"
		},
		{
			"bufferView":3,
			"componentType":5126,
			"count":576,
			"type":"VEC2"
		},
		{
			"bufferView":4,
			"componentType":5121,
			"count":576,
			"type":"VEC4"
		},
		{
			"bufferView":5,
			"componentType":5126,
			"count":576,
			"type":"VEC4"
		},
		{
			"bufferView":6,
			"componentType":5123,
			"count":576,
			"type":"SCALAR"
		},
		{
			"bufferView":7,
			"componentType":5126,
			"count":1104,
			"max":[
				2.736037254333496,
				5.695667266845703,
				1.0223898887634277
			],
			"min":[
				-2.7381458282470703,
				0.043989356607198715,
				-0.3191829025745392
			],
			"type":"VEC3"
		},
		{
			"bufferView":8,
			"componentType":5126,
			"count":1104,
			"type":"VEC3"
		},
		{
			"bufferView":9,
			"componentType":5126,
			"count":1104,
			"type":"VEC2"
		},
		{
			"bufferView":10,
			"componentType":5126,
			"count":1104,
			"type":"VEC2"
		},
		{
			"bufferView":11,
			"componentType":5121,
			"count":1104,
			"type":"VEC4"
		},
		{
			"bufferView":12,
			"componentType":5126,
			"count":1104,
			"type":"VEC4"
		},
		{
			"bufferView":13,
			"componentType":5123,
			"count":1560,
			"type":"SCALAR"
		},
		{
			"bufferView":14,
			"componentType":5126,
			"count":21,
			"type":"MAT4"
		},
		{
			"bufferView":15,
			"componentType":5126,
			"count":13,
			"max":[
				0.5
			],
			"min":[
				0
			],
			"type":"SCALAR"
		},
		{
			"bufferView":16,
			"componentType":5126,
			"count":13,
			"type":"VEC3"
		},
		{
			"bufferView":17,
			"componentType":5126,
			"count":2,
			"max":[
				0.5
			],
			"min":[
				0
			],
			"type":"SCALAR"
		},
		{
			"bufferView":18,
			"componentType":5126,
			"count":2,
			"type":"VEC4"
		},
		{
			"bufferView":19,
			"componentType":5126,
			"count":2,
			"type":"VEC3"
		},
		{
			"bufferView":20,
			"componentType":5126,
			"count":2,
			"type":"VEC3"
		},
		{
			"bufferView":21,
			"componentType":5126,
			"count":13,
			"type":"VEC4"
		},
		{
			"bufferView":22,
			"componentType":5126,
			"count":2,
			"type":"VEC3"
		},
		{
			"bufferView":23,
			"componentType":5126,
			"count":2,
			"type":"VEC3"
		},
		{
			"bufferView":24,
			"componentType":5126,
			"count":2,
			"type":"VEC4"
		},
		{
			"bufferView":25,
			"componentType":5126,
			"count":2,
			"type":"VEC3"
		},
		{
			"bufferView":26,
			"componentType":5126,
			"count":2,
			"type":"VEC3"
		},
		{
			"bufferView":27,
			"componentType":5126,
			"count":2,
			"type":"VEC4"
		},
		{
			"bufferView":28,
			"componentType":5126,
			"count":2,
			"type":"VEC3"
		},
		{
			"bufferView":29,
			"componentType":5126,
			"count":2,
			"type":"VEC3"
		},
		{
			"bufferView":30,
			"componentType":5126,
			"count":13,
			"type":"VEC4"
		},
		{
			"bufferView":31,
			"componentType":5126,
			"count":2,
			"type":"VEC3"
		},
		{
			"bufferView":32,
			"componentType":5126,
			"count":2,
			"type":"VEC3"
		},
		{
			"bufferView":33,
			"componentType":5126,
			"count":2,
			"type":"VEC4"
		},
		{
			"bufferView":34,
			"componentType":5126,
			"count":2,
			"type":"VEC3"
		},
		{
			"bufferView":35,
			"componentType":5126,
			"count":2,
			"type":"VEC3"
		},
		{
			"bufferView":36,
			"componentType":5126,
			"count":2,
			"type":"VEC4"
		},
		{
			"bufferView":37,
			"componentType":5126,
			"count":2,
			"type":"VEC3"
		},
		{
			"bufferView":38,
			"componentType":5126,
			"count":2,
			"type":"VEC3"
		},
		{
			"bufferView":39,
			"componentType":5126,
			"count":2,
			"type":"VEC4"
		},
		{
			"bufferView":40,
			"componentType":5126,
			"count":2,
			"type":"VEC3"
		},
		{
			"bufferView":41,
			"componentType":5126,
			"count":2,
			"type":"VEC3"
		},
		{
			"bufferView":42,
			"componentType":5126,
			"count":2,
			"type":"VEC4"
		},
		{
			"bufferView":43,
			"componentType":5126,
			"count":2,
			"type":"VEC3"
		},
		{
			"bufferView":44,
			"componentType":5126,
			"count":2,
			"type":"VEC3"
		},
		{
			"bufferView":45,
			"componentType":5126,
			"count":2,
			"type":"VEC4"
		},
		{
			"bufferView":46,
			"componentType":5126,
			"count":2,
			"type":"VEC3"
		},
		{
			"bufferView":47,
			"componentType":5126,
			"count":2,
			"type":"VEC3"
		},
		{
			"bufferView":48,
			"componentType":5126,
			"count":2,
			"type":"VEC4"
		},
		{
			"bufferView":49,
			"componentType":5126,
			"count":2,
			"type":"VEC3"
		},
		{
			"bufferView":50,
			"componentType":5126,
			"count":2,
			"type":"VEC3"
		},
		{
			"bufferView":51,
			"componentType":5126,
			"count":2,
			"type":"VEC4"
		},
		{
			"bufferView":52,
			"componentType":5126,
			"count":2,
			"type":"VEC3"
		},
		{
			"bufferView":53,
			"componentType":5126,
			"count":2,
			"type":"VEC3"
		},
		{
			"bufferView":54,
			"componentType":5126,
			"count":2,
			"type":"VEC4"
		},
		{
			"bufferView":55,
			"componentType":5126,
			"count":2,
			"type":"VEC3"
		},
		{
			"bufferView":56,
			"componentType":5126,
			"count":2,
			"type":"VEC3"
		},
		{
			"bufferView":57,
			"componentType":5126,
			"count":2,
			"type":"VEC4"
		},
		{
			"bufferView":58,
			"componentType":5126,
			"count":2,
			"type":"VEC3"
		},
		{
			"bufferView":59,
			"componentType":5126,
			"count":2,
			"type":"VEC3"
		},
		{
			"bufferView":60,
			"componentType":5126,
			"count":13,
			"type":"VEC4"
		},
		{
			"bufferView":61,
			"componentType":5126,
			"count":2,
			"type":"VEC3"
		},
		{
			"bufferView":62,
			"componentType":5126,
			"count":2,
			"type":"VEC3"
		},
		{
			"bufferView":63,
			"componentType":5126,
			"count":13,
			"type":"VEC4"
		},
		{
			"bufferView":64,
			"componentType":5126,
			"count":2,
			"type":"VEC3"
		},
		{
			"bufferView":65,
			"componentType":5126,
			"count":2,
			"type":"VEC3"
		},
		{
			"bufferView":66,
			"componentType":5126,
			"count":2,
			"type":"VEC4"
		},
		{
			"bufferView":67,
			"componentType":5126,
			"count":2,
			"type":"VEC3"
		},
		{
			"bufferView":68,
			"componentType":5126,
			"count":2,
			"type":"VEC3"
		},
		{
			"bufferView":69,
			"componentType":5126,
			"count":2,
			"type":"VEC4"
		},
		{
			"bufferView":70,
			"componentType":5126,
			"count":2,
			"type":"VEC3"
		},
		{
			"bufferView":71,
			"componentType":5126,
			"count":2,
			"type":"VEC3"
		},
		{
			"bufferView":72,
			"componentType":5126,
			"count":13,
			"type":"VEC4"
		},
		{
			"bufferView":73,
			"componentType":5126,
			"count":2,
			"type":"VEC3"
		},
		{
			"bufferView":74,
			"componentType":5126,
			"count":2,
			"type":"VEC3"
		},
		{
			"bufferView":75,
			"componentType":5126,
			"count":2,
			"type":"VEC4"
		},
		{
			"bufferView":76,
			"componentType":5126,
			"count":2,
			"type":"VEC3"
		},
		{
			"bufferView":77,
			"componentType":5126,
			"count":2,
			"type":"VEC3"
		},
		{
			"bufferView":78,
			"componentType":5126,
			"count":2,
			"type":"VEC4"
		},
		{
			"bufferView":79,
			"componentType":5126,
			"count":2,
			"type":"VEC3"
		},
		{
			"bufferView":80,
			"componentType":5126,
			"count":49,
			"max":[
				2
			],
			"min":[
				0
			],
			"type":"SCALAR"
		},
		{
			"bufferView":81,
			"componentType":5126,
			"count":49,
			"type":"VEC3"
		},
		{
			"bufferView":82,
			"componentType":5126,
			"count":2,
			"max":[
				2
			],
			"min":[
				0
			],
			"type":"SCALAR"
		},
		{
			"bufferView":83,
			"componentType":5126,
			"count":2,
			"type":"VEC4"
		},
		{
			"bufferView":84,
			"componentType":5126,
			"count":2,
			"type":"VEC3"
		},
		{
			"bufferView":85,
			"componentType":5126,
			"count":2,
			"type":"VEC3"
		},
		{
			"bufferView":86,
			"componentType":5126,
			"count":2,
			"type":"VEC4"
		},
		{
			"bufferView":87,
			"componentType":5126,
			"count":2,
			"type":"VEC3"
		},
		{
			"bufferView":88,
			"componentType":5126,
			"count":2,
			"type":"VEC3"
		},
		{
			"bufferView":89,
			"componentType":5126,
			"count":2,
			"type":"VEC4"
		},
		{
			"bufferView":90,
			"componentType":5126,
			"count":2,
			"type":"VEC3"
		},
		{
			"bufferView":91,
			"componentType":5126,
			"count":2,
			"type":"VEC3"
		},
		{
			"bufferView":92,
			"componentType":5126,
			"count":2,
			"type":"VEC4"
		},
		{
			"bufferView":93,
			"componentType":5126,
			"count":2,
			"type":"VEC3"
		},
		{
			"bufferView":94,
			"componentType":5126,
			"count":2,
			"type":"VEC3"
		},
		{
			"bufferView":95,
			"componentType":5126,
			"count":2,
			"type":"VEC4"
		},
		{
			"bufferView":96,
			"componentType":5126,
			"count":2,
			"type":"VEC3"
		},
		{
			"bufferView":97,
			"componentType":5126,
			"count":2,
			"type":"VEC3"
		},
		{
			"bufferView":98,
			"componentType":5126,
			"count":2,
			"type":"VEC4"
		},
		{
			"bufferView":99,
			"componentType":5126,
			"count":2,
			"type":"VEC3"
		},
		{
			"bufferView":100,
			"componentType":5126,
			"count":2,
			"type":"VEC3"
		},
		{
			"bufferView":101,
			"componentType":5126,
			"count":49,
			"type":"VEC4"
		},
		{
			"bufferView":102,
			"componentType":5126,
			"count":2,
			"type":"VEC3"
		},
		{
			"bufferView":103,
			"componentType":5126,
			"count":2,
			"type":"VEC3"
		},
		{
			"bufferView":104,
			"componentType":5126,
			"count":49,
			"type":"VEC4"
		},
		{
			"bufferView":105,
			"componentType":5126,
			"count":2,
			"type":"VEC3"
		},
		{
			"bufferView":106,
			"componentType":5126,
			"count":2,
			"type":"VEC3"
		},
		{
			"bufferView":107,
			"componentType":5126,
			"count":49,
			"type":"VEC4"
		},
		{
			"bufferView":108,
			"componentType":5126,
			"count":2,
			"type":"VEC3"
		},
		{
			"bufferView":109,
			"componentType":5126,
			"count":2,
			"type":"VEC3"
		},
		{
			"bufferView":110,
			"componentType":5126,
			"count":2,
			"type":"VEC4"
		},
		{
			"bufferView":111,
			"componentType":5126,
			"count":2,
			"type":"VEC3"
		},
		{
			"bufferView":112,
			"componentType":5126,
			"count":2,
			"type":"VEC3"
		},
		{
			"bufferView":113,
			"componentType":5126,
			"count":49,
			"type":"VEC4"
		},
		{
			"bufferView":114,
			"componentType":5126,
			"count":2,
			"type":"VEC3"
		},
		{
			"bufferView":115,
			"componentType":5126,
			"count":2,
			"type":"VEC3"
		},
		{
			"bufferView":116,
			"componentType":5126,
			"count":49,
			"type":"VEC4"
		},
		{
			"bufferView":117,
			"componentType":5126,
			"count":2,
			"type":"VEC3"
		},
		{
			"bufferView":118,
			"componentType":5126,
			"count":2,
			"type":"VEC3"
		},
		{
			"bufferView":119,
			"componentType":5126,
			"count":49,
			"type":"VEC4"
		},
		{
			"bufferView":120,
			"componentType":5126,
			"count":2,
			"type":"VEC3"
		},
		{
			"bufferView":121,
			"componentType":5126,
			"count":2,
			"type":"VEC3"
		},
		{
			"bufferView":122,
			"componentType":5126,
			"count":2,
			"type":"VEC4"
		},
		{
			"bufferView":123,
			"componentType":5126,
			"count":2,
			"type":"VEC3"
		},
		{
			"bufferView":124,
			"componentType":5126,
			"count":49,
			"type":"VEC3"
		},
		{
			"bufferView":125,
			"componentType":5126,
			"count":49,
			"type":"VEC4"
		},
		{
			"bufferView":126,
			"componentType":5126,
			"count":2,
			"type":"VEC3"
		},
		{
			"bufferView":127,
			"componentType":5126,
			"count":2,
			"type":"VEC3"
		},
		{
			"bufferView":128,
			"componentType":5126,
			"count":49,
			"type":"VEC4"
		},
		{
			"bufferView":129,
			"componentType":5126,
			"count":2,
			"type":"VEC3"
		},
		{
			"bufferView":130,
			"componentType":5126,
			"count":2,
			"type":"VEC3"
		},
		{
			"bufferView":131,
			"componentType":5126,
			"count":49,
			"type":"VEC4"
		},
		{
			"bufferView":132,
			"componentType":5126,
			"count":2,
			"type":"VEC3"
		},
		{
			"bufferView":133,
			"componentType":5126,
			"count":2,
			"type":"VEC3"
		},
		{
			"bufferView":134,
			"componentType":5126,
			"count":2,
			"type":"VEC4"
		},
		{
			"bufferView":135,
			"componentType":5126,
			"count":2,
			"type":"VEC3"
		},
		{
			"bufferView":136,
			"componentType":5126,
			"count":49,
			"type":"VEC3"
		},
		{
			"bufferView":137,
			"componentType":5126,
			"count":49,
			"type":"VEC4"
		},
		{
			"bufferView":138,
			"componentType":5126,
			"count":2,
			"type":"VEC3"
		},
		{
			"bufferView":139,
			"componentType":5126,
			"count":2,
			"type":"VEC3"
		},
		{
			"bufferView":140,
			"componentType":5126,
			"count":49,
			"type":"VEC4"
		},
		{
			"bufferView":141,
			"componentType":5126,
			"count":2,
			"type":"VEC3"
		},
		{
			"bufferView":142,
			"componentType":5126,
			"count":2,
			"type":"VEC3"
		},
		{
			"bufferView":143,
			"componentType":5126,
			"count":49,
			"type":"VEC4"
		},
		{
			"bufferView":144,
			"componentType":5126,
			"count":2,
			"type":"VEC3"
		},
		{
			"bufferView":145,
			"componentType":5126,
			"count":2,
			"type":"VEC3"
		},
		{
			"bufferView":146,
			"componentType":5126,
			"count":2,
			"type":"VEC4"
		},
		{
			"bufferView":147,
			"componentType":5126,
			"count":2,
			"type":"VEC3"
		}
	],
	"bufferViews":[
		{
			"buffer":0,
			"byteLength":6912,
			"byteOffset":0,
			"target":34962
		},
		{
			"buffer":0,
			"byteLength":6912,
			"byteOffset":6912,
			"target":34962
		},
		{
			"buffer":0,
			"byteLength":4608,
			"byteOffset":13824,
			"target":34962
		},
		{
			"buffer":0,
			"byteLength":4608,
			"byteOffset":18432,
			"target":34962
		},
		{
			"buffer":0,
			"byteLength":2304,
			"byteOffset":23040,
			"target":34962
		},
		{
			"buffer":0,
			"byteLength":9216,
			"byteOffset":25344,
			"target":34962
		},
		{
			"buffer":0,
			"byteLength":1152,
			"byteOffset":34560,
			"target":34963
		},
		{
			"buffer":0,
			"byteLength":13248,
			"byteOffset":35712,
			"target":34962
		},
		{
			"buffer":0,
			"byteLength":13248,
			"byteOffset":48960,
			"target":34962
		},
		{
			"buffer":0,
			"byteLength":8832,
			"byteOffset":62208,
			"target":34962
		},
		{
			"buffer":0,
			"byteLength":8832,
			"byteOffset":71040,
			"target":34962
		},
		{
			"buffer":0,
			"byteLength":4416,
			"byteOffset":79872,
			"target":34962
		},
		{
			"buffer":0,
			"byteLength":17664,
			"byteOffset":84288,
			"target":34962
		},
		{
			"buffer":0,
			"byteLength":3120,
			"byteOffset":101952,
			"target":34963
		},
		{
			"buffer":0,
			"byteLength":1344,
			"byteOffset":105072
		},
		{
			"buffer":0,
			"byteLength":52,
			"byteOffset":106416
		},
		{
			"buffer":0,
			"byteLength":156,
			"byteOffset":106468
		},
		{
			"buffer":0,
			"byteLength":8,
			"byteOffset":106624
		},
		{
			"buffer":0,
			"byteLength":32,
			"byteOffset":106632
		},
		{
			"buffer":0,
			"byteLength":24,
			"byteOffset":106664
		},
		{
			"buffer":0,
			"byteLength":24,
			"byteOffset":106688
		},
		{
			"buffer":0,
			"byteLength":208,
			"byteOffset":106712
		},
		{
			"buffer":0,
			"byteLength":24,
			"byteOffset":106920
		},
		{
			"buffer":0,
			"byteLength":24,
			"byteOffset":106944
		},
		{
			"buffer":0,
			"byteLength":32,
			"byteOffset":106968
		},
		{
			"buffer":0,
			"byteLength":24,
			"byteOffset":107000
		},
		{
			"buffer":0,
			"byteLength":24,
			"byteOffset":107024
		},
		{
			"buffer":0,
			"byteLength":32,
			"byteOffset":107048
		},
		{
			"buffer":0,
			"byteLength":24,
			"byteOffset":107080
		},
		{
			"buffer":0,
			"byteLength":24,
			"byteOffset":107104
		},
		{
			"buffer":0,
			"byteLength":208,
			"byteOffset":107128
		},
		{
			"buffer":0,
			"byteLength":24,
			"byteOffset":107336
		},
		{
			"buffer":0,
			"byteLength":24,
			"byteOffset":107360
		},
		{
			"buffer":0,
			"byteLength":32,
			"byteOffset":107384
		},
		{
			"buffer":0,
			"byteLength":24,
			"byteOffset":107416
		},
		{
			"buffer":0,
			"byteLength":24,
			"byteOffset":107440
		},
		{
			"buffer":0,
			"byteLength":32,
			"byteOffset":107464
		},
		{
			"buffer":0,
			"byteLength":24,
			"byteOffset":107496
		},
		{
			"buffer":0,
			"byteLength":24,
			"byteOffset":107520
		},
		{
			"buffer":0,
			"byteLength":32,
			"byteOffset":107544
		},
		{
			"buffer":0,
			"byteLength":24,
			"byteOffset":107576
		},
		{
			"buffer":0,
			"byteLength":24,
			"byteOffset":107600
		},
		{
			"buffer":0,
			"byteLength":32,
			"byteOffset":107624
		},
		{
			"buffer":0,
			"byteLength":24,
			"byteOffset":107656
		},
		{
			"buffer":0,
			"byteLength":24,
			"byteOffset":107680
		},
		{
			"buffer":0,
			"byteLength":32,
			"byteOffset":107704
		},
		{
			"buffer":0,
			"byteLength":24,
			"byteOffset":107736
		},
		{
			"buffer":0,
			"byteLength":24,
			"byteOffset":107760
		},
		{
			"buffer":0,
			"byteLength":32,
			"byteOffset":107784
		},
		{
			"buffer":0,
			"byteLength":24,
			"byteOffset":107816
		},
		{
			"buffer":0,
			"byteLength":24,
			"byteOffset":107840
		},
		{
			"buffer":0,
			"byteLength":32,
			"byteOffset":107864
		},
		{
			"buffer":0,
			"byteLength":24,
			"byteOffset":107896
		},
		{
			"buffer":0,
			"byteLength":24,
			"byteOffset":107920
		},
		{
			"buffer":0,
			"byteLength":32,
			"byteOffset":107944
		},
		{
			"buffer":0,
			"byteLength":24,
			"byteOffset":107976
		},
		{
			"buffer":0,
			"byteLength":24,
			"byteOffset":108000
		},
		{
			"buffer":0,
			"byteLength":32,
			"byteOffset":108024
		},
		{
			"buffer":0,
			"byteLength":24,
			"byteOffset":108056
		},
		{
			"buffer":0,
			"byteLength":24,
			"byteOffset":108080
		},
		{
			"buffer":0,
			"byteLength":208,
			"byteOffset":108104
		},
		{
			"buffer":0,
			"byteLength":24,
			"byteOffset":108312
		},
		{
			"buffer":0,
			"byteLength":24,
			"byteOffset":108336
		},
		{
			"buffer":0,
			"byteLength":208,
			"byteOffset":108360
		},
		{
			"buffer":0,
			"byteLength":24,
			"byteOffset":108568
		},
		{
			"buffer":0,
			"byteLength":24,
			"byteOffset":108592
		},
		{
			"buffer":0,
			"byteLength":32,
			"byteOffset":108616
		},
		{
			"buffer":0,
			"byteLength":24,
			"byteOffset":108648
		},
		{
			"buffer":0,
			"byteLength":24,
			"byteOffset":108672
		},
		{
			"buffer":0,
			"byteLength":32,
			"byteOffset":108696
		},
		{
			"buffer":0,
			"byteLength":24,
			"byteOffset":108728
		},
		{
			"buffer":0,
			"byteLength":24,
			"byteOffset":108752
		},
		{
			"buffer":0,
			"byteLength":208,
			"byteOffset":108776
		},
		{
			"buffer":0,
			"byteLength":24,
			"byteOffset":108984
		},
		{
			"buffer":0,
			"byteLength":24,
			"byteOffset":109008
		},
		{
			"buffer":0,
			"byteLength":32,
			"byteOffset":109032
		},
		{
			"buffer":0,
			"byteLength":24,
			"byteOffset":109064
		},
		{
			"buffer":0,
			"byteLength":24,
			"byteOffset":109088
		},
		{
			"buffer":0,
			"byteLength":32,
			"byteOffset":109112
		},
		{
			"buffer":0,
			"byteLength":24,
			"byteOffset":109144
		},
		{
			"buffer":0,
			"byteLength":196,
			"byteOffset":109168
		},
		{
			"buffer":0,
			"byteLength":588,
			"byteOffset":109364
		},
		{
			"buffer":0,
			"byteLength":8,
			"byteOffset":109952
		},
		{
			"buffer":0,
			"byteLength":32,
			"byteOffset":109960
		},
		{
			"buffer":0,
			"byteLength":24,
			"byteOffset":109992
		},
		{
			"buffer":0,
			"byteLength":24,
			"byteOffset":110016
		},
		{
			"buffer":0,
			"byteLength":32,
			"byteOffset":110040
		},
		{
			"buffer":0,
			"byteLength":24,
			"byteOffset":110072
		},
		{
			"buffer":0,
			"byteLength":24,
			"byteOffset":110096
		},
		{
			"buffer":0,
			"byteLength":32,
			"byteOffset":110120
		},
		{
			"buffer":0,
			"byteLength":24,
			"byteOffset":110152
		},
		{
			"buffer":0,
			"byteLength":24,
			"byteOffset":110176
		},
		{
			"buffer":0,
			"byteLength":32,
			"byteOffset":110200
		},
		{
			"buffer":0,
			"byteLength":24,
			"byteOffset":110232
		},
		{
			"buffer":0,
			"byteLength":24,
			"byteOffset":110256
		},
		{
			"buffer":0,
			"byteLength":32,
			"byteOffset":110280
		},
		{
			"buffer":0,
			"byteLength":24,
			"byteOffset":110312
		},
		{
			"buffer":0,
			"byteLength":24,
			"byteOffset":110336
		},
		{
			"buffer":0,
			"byteLength":32,
			"byteOffset":110360
		},
		{
			"buffer":0,
			"byteLength":24,
			"byteOffset":110392
		},
		{
			"buffer":0,
			"byteLength":24,
			"byteOffset":110416
		},
		{
			"buffer":0,
			"byteLength":784,
			"byteOffset":110440
		},
		{
			"buffer":0,
			"byteLength":24,
			"byteOffset":111224
		},
		{
			"buffer":0,
			"byteLength":24,
			"byteOffset":111248
		},
		{
			"buffer":0,
			"byteLength":784,
			"byteOffset":111272
		},
		{
			"buffer":0,
			"byteLength":24,
			"byteOffset":112056
		},
		{
			"buffer":0,
			"byteLength":24,
			"byteOffset":112080
		},
		{
			"buffer":0,
			"byteLength":784,
			"byteOffset":112104
		},
		{
			"buffer":0,
			"byteLength":24,
			"byteOffset":112888
		},
		{
			"buffer":0,
			"byteLength":24,
			"byteOffset":112912
		},
		{
			"buffer":0,
			"byteLength":32,
			"byteOffset":112936
		},
		{
			"buffer":0,
			"byteLength":24,
			"byteOffset":112968
		},
		{
			"buffer":0,
			"byteLength":24,
			"byteOffset":112992
		},
		{
			"buffer":0,
			"byteLength":784,
			"byteOffset":113016
		},
		{
			"buffer":0,
			"byteLength":24,
			"byteOffset":113800
		},
		{
			"buffer":0,
			"byteLength":24,
			"byteOffset":113824
		},
		{
			"buffer":0,
			"byteLength":784,
			"byteOffset":113848
		},
		{
			"buffer":0,
			"byteLength":24,
			"byteOffset":114632
		},
		{
			"buffer":0,
			"byteLength":24,
			"byteOffset":114656
		},
		{
			"buffer":0,
			"byteLength":784,
			"byteOffset":114680
		},
		{
			"buffer":0,
			"byteLength":24,
			"byteOffset":115464
		},
		{
			"buffer":0,
			"byteLength":24,
			"byteOffset":115488
		},
		{
			"buffer":0,
			"byteLength":32,
			"byteOffset":115512
		},
		{
			"buffer":0,
			"byteLength":24,
			"byteOffset":115544
		},
		{
			"buffer":0,
			"byteLength":588,
			"byteOffset":115568
		},
		{
			"buffer":0,
			"byteLength":784,
			"byteOffset":116156
		},
		{
			"buffer":0,
			"byteLength":24,
			"byteOffset":116940
		},
		{
			"buffer":0,
			"byteLength":24,
			"byteOffset":116964
		},
		{
			"buffer":0,
			"byteLength":784,
			"byteOffset":116988
		},
		{
			"buffer":0,
			"byteLength":24,
			"byteOffset":117772
		},
		{
			"buffer":0,
			"byteLength":24,
			"byteOffset":117796
		},
		{
			"buffer":0,
			"byteLength":784,
			"byteOffset":117820
		},
		{
			"buffer":0,
			"byteLength":24,
			"byteOffset":118604
		},
		{
			"buffer":0,
			"byteLength":24,
			"byteOffset":118628
		},
		{
			"buffer":0,
			"byteLength":32,
			"byteOffset":118652
		},
		{
			"buffer":0,
			"byteLength":24,
			"byteOffset":118684
		},
		{
			"buffer":0,
			"byteLength":588,
			"byteOffset":118708
		},
		{
			"buffer":0,
			"byteLength":784,
			"byteOffset":119296
		},
		{
			"buffer":0,
			"byteLength":24,
			"byteOffset":120080
		},
		{
			"buffer":0,
			"byteLength":24,
			"byteOffset":120104
		},
		{
			"buffer":0,
			"byteLength":784,
			"byteOffset":120128
		},
		{
			"buffer":0,
			"byteLength":24,
			"byteOffset":120912
		},
		{
			"buffer":0,
			"byteLength":24,
			"byteOffset":120936
		},
		{
			"buffer":0,
			"byteLength":784,
			"byteOffset":120960
		},
		{
			"buffer":0,
			"byteLength":24,
			"byteOffset":121744
		},
		{
			"buffer":0,
			"byteLength":24,
			"byteOffset":121768
		},
		{
			"buffer":0,
			"byteLength":32,
			"byteOffset":121792
		},
		{
			"buffer":0,
			"byteLength":24,
			"byteOffset":121824
		}
	],
	"buffers":[
		{
			"byteLength":121848,
			"uri":"player2.bin"
		}
	]
}
